<mxfile host="65bd71144e">
    <diagram name="Component-Diagram" id="component-example">
        <mxGraphModel dx="1200" dy="800" grid="1" gridSize="10" guides="1" tooltips="1" connect="1" arrows="1" fold="1" page="1" pageScale="1" pageWidth="850" pageHeight="1100" math="0" shadow="0">
            <root>
                <mxCell id="0"/>
                <mxCell id="1" parent="0"/>
                
                <!-- Components -->
                <mxCell id="comp1" value="&lt;&lt;component&gt;&gt;&lt;br&gt;&lt;b&gt;Web Server&lt;/b&gt;" style="html=1;dropTarget=0;" vertex="1" parent="1">
                    <mxGeometry x="80" y="80" width="140" height="80" as="geometry"/>
                </mxCell>
                <mxCell id="comp1_tab" value="" style="shape=module;jettyWidth=8;jettyHeight=4;" vertex="1" parent="comp1">
                    <mxGeometry x="1" width="20" height="20" relative="1" as="geometry">
                        <mxPoint x="-27" y="7" as="offset"/>
                    </mxGeometry>
                </mxCell>
                
                <mxCell id="comp2" value="&lt;&lt;component&gt;&gt;&lt;br&gt;&lt;b&gt;Application Server&lt;/b&gt;" style="html=1;dropTarget=0;" vertex="1" parent="1">
                    <mxGeometry x="300" y="80" width="140" height="80" as="geometry"/>
                </mxCell>
                <mxCell id="comp2_tab" value="" style="shape=module;jettyWidth=8;jettyHeight=4;" vertex="1" parent="comp2">
                    <mxGeometry x="1" width="20" height="20" relative="1" as="geometry">
                        <mxPoint x="-27" y="7" as="offset"/>
                    </mxGeometry>
                </mxCell>
                
                <mxCell id="comp3" value="&lt;&lt;component&gt;&gt;&lt;br&gt;&lt;b&gt;Database Server&lt;/b&gt;" style="html=1;dropTarget=0;" vertex="1" parent="1">
                    <mxGeometry x="520" y="80" width="140" height="80" as="geometry"/>
                </mxCell>
                <mxCell id="comp3_tab" value="" style="shape=module;jettyWidth=8;jettyHeight=4;" vertex="1" parent="comp3">
                    <mxGeometry x="1" width="20" height="20" relative="1" as="geometry">
                        <mxPoint x="-27" y="7" as="offset"/>
                    </mxGeometry>
                </mxCell>
                
                <mxCell id="comp4" value="&lt;&lt;component&gt;&gt;&lt;br&gt;&lt;b&gt;Authentication Service&lt;/b&gt;" style="html=1;dropTarget=0;" vertex="1" parent="1">
                    <mxGeometry x="190" y="240" width="140" height="80" as="geometry"/>
                </mxCell>
                <mxCell id="comp4_tab" value="" style="shape=module;jettyWidth=8;jettyHeight=4;" vertex="1" parent="comp4">
                    <mxGeometry x="1" width="20" height="20" relative="1" as="geometry">
                        <mxPoint x="-27" y="7" as="offset"/>
                    </mxGeometry>
                </mxCell>
                
                <mxCell id="comp5" value="&lt;&lt;component&gt;&gt;&lt;br&gt;&lt;b&gt;Logging Service&lt;/b&gt;" style="html=1;dropTarget=0;" vertex="1" parent="1">
                    <mxGeometry x="410" y="240" width="140" height="80" as="geometry"/>
                </mxCell>
                <mxCell id="comp5_tab" value="" style="shape=module;jettyWidth=8;jettyHeight=4;" vertex="1" parent="comp5">
                    <mxGeometry x="1" width="20" height="20" relative="1" as="geometry">
                        <mxPoint x="-27" y="7" as="offset"/>
                    </mxGeometry>
                </mxCell>
                
                <!-- Interfaces -->
                <mxCell id="int1" value="&lt;&lt;interface&gt;&gt;&lt;br&gt;HTTP" style="ellipse;whiteSpace=wrap;html=1;" vertex="1" parent="1">
                    <mxGeometry x="250" y="20" width="80" height="40" as="geometry"/>
                </mxCell>
                
                <mxCell id="int2" value="&lt;&lt;interface&gt;&gt;&lt;br&gt;SQL" style="ellipse;whiteSpace=wrap;html=1;" vertex="1" parent="1">
                    <mxGeometry x="470" y="20" width="80" height="40" as="geometry"/>
                </mxCell>
                
                <!-- Dependencies -->
                <mxCell id="dep1" value="uses" style="endArrow=open;endFill=1;endSize=12;html=1;rounded=0;dashed=1;" edge="1" parent="1" source="comp1" target="comp2">
                    <mxGeometry width="160" relative="1" as="geometry">
                        <mxPoint x="220" y="120" as="sourcePoint"/>
                        <mxPoint x="300" y="120" as="targetPoint"/>
                    </mxGeometry>
                </mxCell>
                
                <mxCell id="dep2" value="uses" style="endArrow=open;endFill=1;endSize=12;html=1;rounded=0;dashed=1;" edge="1" parent="1" source="comp2" target="comp3">
                    <mxGeometry width="160" relative="1" as="geometry">
                        <mxPoint x="440" y="120" as="sourcePoint"/>
                        <mxPoint x="520" y="120" as="targetPoint"/>
                    </mxGeometry>
                </mxCell>
                
                <mxCell id="dep3" value="uses" style="endArrow=open;endFill=1;endSize=12;html=1;rounded=0;dashed=1;" edge="1" parent="1" source="comp2" target="comp4">
                    <mxGeometry width="160" relative="1" as="geometry">
                        <mxPoint x="340" y="160" as="sourcePoint"/>
                        <mxPoint x="280" y="240" as="targetPoint"/>
                    </mxGeometry>
                </mxCell>
                
                <mxCell id="dep4" value="uses" style="endArrow=open;endFill=1;endSize=12;html=1;rounded=0;dashed=1;" edge="1" parent="1" source="comp2" target="comp5">
                    <mxGeometry width="160" relative="1" as="geometry">
                        <mxPoint x="400" y="160" as="sourcePoint"/>
                        <mxPoint x="460" y="240" as="targetPoint"/>
                    </mxGeometry>
                </mxCell>
                
                <!-- Interface realizations -->
                <mxCell id="real1" value="" style="endArrow=block;dashed=1;endFill=0;endSize=12;html=1;rounded=0;" edge="1" parent="1" source="comp1" target="int1">
                    <mxGeometry width="160" relative="1" as="geometry">
                        <mxPoint x="180" y="80" as="sourcePoint"/>
                        <mxPoint x="270" y="60" as="targetPoint"/>
                    </mxGeometry>
                </mxCell>
                
                <mxCell id="real2" value="" style="endArrow=block;dashed=1;endFill=0;endSize=12;html=1;rounded=0;" edge="1" parent="1" source="comp3" target="int2">
                    <mxGeometry width="160" relative="1" as="geometry">
                        <mxPoint x="560" y="80" as="sourcePoint"/>
                        <mxPoint x="520" y="60" as="targetPoint"/>
                    </mxGeometry>
                </mxCell>
                
                <!-- Ports -->
                <mxCell id="port1" value="" style="html=1;shape=mxgraph.sysml.port;sysMLPortType=flowPort;" vertex="1" parent="1">
                    <mxGeometry x="210" y="110" width="20" height="20" as="geometry"/>
                </mxCell>
                
                <mxCell id="port2" value="" style="html=1;shape=mxgraph.sysml.port;sysMLPortType=flowPort;" vertex="1" parent="1">
                    <mxGeometry x="290" y="110" width="20" height="20" as="geometry"/>
                </mxCell>
            </root>
        </mxGraphModel>
    </diagram>
</mxfile>